<?xml version="1.0" standalone="no"?>
<!DOCTYPE svg PUBLIC "-//W3C//DTD SVG 20010904//EN"
 "http://www.w3.org/TR/2001/REC-SVG-20010904/DTD/svg10.dtd">
<svg version="1.0" xmlns="http://www.w3.org/2000/svg"
 width="500.000000pt" height="500.000000pt" viewBox="0 0 500.000000 500.000000"
 preserveAspectRatio="xMidYMid meet">
<metadata>
Created by potrace 1.11, written by Peter Selinger 2001-2013
</metadata>
<g transform="translate(0.000000,500.000000) scale(0.100000,-0.100000)"
fill="#000000" stroke="none">
<path d="M3490 3403 c-94 -14 -179 -88 -195 -168 -6 -32 -7 -662 -2 -705 10
-70 41 -120 96 -154 116 -71 269 -59 357 29 51 51 61 90 60 234 l-1 104 -67
-1 c-115 -1 -108 1 -106 -34 6 -199 -8 -234 -90 -225 -82 9 -79 -2 -78 390 1
392 -2 379 83 381 67 1 83 -23 83 -129 l0 -83 63 -4 c118 -6 112 -11 110 92
-4 178 -81 267 -238 274 -27 1 -61 1 -75 -1z"/>
<path d="M4630 3390 c-103 -35 -139 -95 -135 -228 5 -149 9 -156 175 -313 73
-68 138 -135 145 -149 7 -15 12 -58 11 -107 -1 -69 -5 -85 -21 -97 -28 -21
-88 -20 -115 2 -20 16 -23 29 -26 101 -2 46 -6 86 -9 89 -3 4 -42 7 -85 7
l-80 1 0 -94 c0 -72 5 -104 21 -140 39 -90 142 -138 274 -130 86 6 142 34 182
91 27 39 28 44 28 181 0 135 -1 143 -26 186 -15 25 -58 74 -95 109 -228 214
-208 187 -205 281 2 53 15 69 62 76 28 5 41 1 62 -17 24 -21 27 -32 28 -87 2
-73 5 -75 83 -74 104 1 94 -9 91 85 -7 172 -73 237 -247 242 -42 2 -86 -4
-118 -15z"/>
<path d="M16 3392 c-10 -2 -15 -10 -12 -20 2 -9 7 -43 11 -76 4 -32 8 -68 10
-80 2 -11 6 -43 10 -71 3 -27 10 -81 16 -120 5 -38 12 -90 15 -115 2 -25 6
-56 9 -69 2 -14 12 -81 20 -150 9 -69 18 -139 21 -156 3 -16 9 -62 14 -103 5
-40 12 -77 14 -80 2 -4 46 -7 97 -7 l93 0 7 35 c4 19 11 60 15 90 8 64 10 84
17 125 3 17 8 50 12 75 7 50 13 86 19 128 11 68 20 148 17 157 -1 6 1 6 5 2 8
-8 10 -16 19 -87 4 -25 8 -52 10 -60 2 -8 7 -37 10 -65 3 -27 8 -61 11 -75 2
-14 6 -34 8 -45 2 -11 7 -45 11 -75 3 -30 12 -89 18 -130 l12 -75 97 0 c60 0
98 4 98 10 0 5 5 42 11 80 5 39 12 88 14 110 2 22 7 58 10 80 8 48 11 73 20
145 4 30 9 62 10 70 1 8 6 40 10 70 3 30 8 66 10 80 5 33 14 99 20 153 3 23 8
60 12 82 3 22 7 49 8 60 2 11 6 39 9 63 5 31 4 42 -6 43 -75 5 -168 2 -169 -6
0 -5 -2 -17 -4 -25 -1 -8 -5 -44 -9 -80 -4 -36 -9 -80 -11 -98 -2 -19 -7 -68
-11 -110 -3 -41 -7 -83 -9 -93 -5 -27 -18 -180 -19 -221 0 -20 -2 -35 -5 -32
-6 5 -6 8 -15 94 -9 82 -26 212 -41 308 -8 50 -10 67 -20 147 -9 83 -13 107
-19 112 -7 7 -155 10 -166 3 -5 -3 -12 -28 -15 -55 -3 -28 -8 -59 -10 -71 -6
-29 -13 -79 -20 -139 -3 -27 -7 -63 -10 -80 -10 -61 -13 -84 -21 -141 -3 -33
-8 -66 -10 -74 -1 -8 -3 -37 -3 -64 -1 -66 -8 -55 -16 24 -3 36 -8 82 -11 102
-3 20 -7 61 -9 90 -5 62 -12 128 -20 192 -5 45 -17 180 -18 204 0 6 -5 12 -11
13 -35 3 -145 3 -160 1z"/>
<path d="M1078 3389 c-9 -6 -19 -50 -42 -189 -4 -19 -11 -55 -16 -80 -8 -40
-20 -103 -35 -195 -3 -16 -8 -40 -10 -53 -3 -13 -12 -60 -20 -105 -8 -45 -17
-93 -20 -107 -15 -72 -48 -268 -49 -290 -1 -24 0 -25 84 -25 l85 0 17 95 c9
52 17 96 17 97 1 1 40 2 87 1 54 0 87 -5 90 -12 6 -17 14 -66 20 -121 3 -27 8
-52 10 -54 3 -3 43 -5 89 -6 98 -2 95 -7 70 110 -15 75 -25 128 -30 160 -2 18
-18 104 -30 165 -3 14 -9 51 -15 82 -6 32 -12 69 -15 83 -3 14 -7 36 -10 50
-3 14 -10 53 -15 88 -11 61 -47 254 -55 292 -4 18 -12 20 -101 20 -53 0 -101
-3 -106 -6z m107 -339 c4 -19 8 -46 10 -60 2 -14 6 -38 9 -55 42 -238 42 -244
32 -248 -17 -5 -116 -1 -122 6 -5 5 15 143 32 232 3 11 10 53 16 92 6 40 13
72 14 70 2 -1 6 -18 9 -37z"/>
<path d="M1534 3391 c-2 -2 -4 -239 -4 -526 l0 -521 80 0 c50 1 83 5 88 13 4
6 7 107 6 225 0 117 3 216 8 219 15 10 109 -7 125 -24 14 -14 17 -44 19 -184
1 -92 2 -179 3 -193 3 -49 13 -54 115 -55 53 -1 96 0 96 2 0 2 -9 16 -19 31
-18 24 -20 48 -23 222 -3 216 -7 229 -76 267 l-32 18 34 17 c19 10 45 32 58
50 21 30 23 45 25 149 1 64 -3 135 -9 159 -14 53 -67 106 -122 121 -38 11
-363 19 -372 10z m293 -150 c27 -2 40 -55 38 -149 -3 -117 -13 -130 -101 -128
l-59 1 -1 140 0 141 55 -2 c31 -1 62 -2 68 -3z"/>
<path d="M2104 3329 c4 -37 9 -77 11 -90 3 -13 7 -44 10 -69 8 -58 14 -107 20
-145 10 -63 18 -129 30 -227 3 -24 7 -54 10 -68 2 -14 7 -47 10 -75 3 -27 8
-63 10 -80 7 -43 14 -101 21 -167 4 -32 10 -59 13 -59 23 -4 191 -4 192 1 1 3
3 14 4 25 7 59 16 122 20 135 2 8 6 35 9 60 3 25 8 54 10 65 4 21 17 112 22
152 1 13 6 42 10 65 4 24 8 55 9 70 2 32 15 50 16 22 0 -10 2 -28 4 -39 3 -11
7 -45 11 -75 3 -30 8 -57 9 -60 2 -3 6 -30 10 -60 3 -30 10 -80 15 -110 12
-76 20 -129 26 -170 11 -91 4 -85 107 -84 110 2 104 1 104 17 1 26 15 142 18
147 1 3 6 32 9 65 4 33 9 71 11 85 8 55 26 187 30 225 7 57 15 118 20 135 2 8
7 42 10 75 3 33 13 105 20 160 22 153 29 140 -70 139 -46 0 -87 -2 -89 -5 -3
-3 -8 -30 -11 -60 -3 -30 -8 -76 -11 -104 -3 -27 -8 -68 -10 -90 -1 -22 -5
-60 -8 -85 -3 -25 -8 -79 -12 -120 -5 -41 -9 -83 -10 -92 -1 -10 -2 -41 -3
-70 -1 -66 -7 -59 -15 17 -12 113 -17 150 -21 165 -2 8 -7 35 -10 60 -3 25 -8
62 -11 83 -3 20 -7 47 -9 60 -17 136 -22 178 -30 217 -5 24 -8 25 -83 24 -43
0 -82 -3 -88 -7 -6 -4 -15 -35 -19 -69 -4 -35 -9 -70 -10 -78 -1 -8 -5 -41 -8
-72 -4 -32 -9 -68 -11 -80 -3 -13 -7 -39 -10 -58 -13 -101 -18 -137 -22 -160
-2 -14 -7 -52 -10 -85 -3 -33 -7 -61 -9 -63 -1 -2 -6 43 -10 100 -4 57 -9 112
-11 123 -2 11 -6 54 -9 95 -3 41 -8 86 -10 100 -3 14 -7 52 -10 85 -12 130
-16 159 -20 164 -3 2 -44 5 -91 5 l-86 1 6 -66z"/>
<path d="M3040 3390 l-22 -5 1 -512 c0 -282 2 -516 5 -521 3 -5 40 -8 83 -7
l78 1 3 522 c1 346 -1 522 -8 523 -36 4 -122 3 -140 -1z"/>
<path d="M3901 3392 c-16 -5 -14 -1039 2 -1044 6 -2 46 -4 87 -4 l75 1 0 248
c0 136 2 247 5 247 4 0 27 -56 110 -270 10 -25 34 -86 54 -135 l37 -90 85 -1
c46 0 84 4 84 9 0 5 -50 128 -110 274 -78 186 -109 271 -104 286 6 21 31 82
143 354 28 68 51 124 51 125 0 3 -156 1 -171 -1 -9 -2 -169 -400 -169 -423 0
-6 -3 -8 -7 -4 -4 4 -8 102 -8 219 l0 211 -77 0 c-43 1 -82 0 -87 -2z"/>
<path d="M1211 2159 c-59 -36 -61 -43 -61 -277 0 -234 3 -248 63 -278 33 -18
109 -20 147 -6 14 6 36 22 50 37 l25 26 0 214 c0 234 -5 254 -59 282 -43 22
-130 24 -165 2z m117 -73 c18 -11 17 -390 0 -403 -25 -19 -46 -22 -65 -8 -16
12 -18 31 -19 202 -1 152 1 191 13 205 14 16 49 18 71 4z"/>
<path d="M2484 2170 c-48 -15 -74 -50 -78 -106 -5 -80 8 -104 99 -196 81 -81
85 -87 85 -129 0 -51 -7 -64 -38 -71 -29 -8 -52 15 -54 55 0 18 -1 39 -2 47
-1 9 -12 16 -31 17 -58 3 -64 -3 -61 -63 5 -90 51 -134 144 -136 53 -1 103 22
122 57 16 31 19 128 4 171 -8 25 -41 64 -93 113 -73 69 -81 80 -81 113 0 27 6
40 21 48 30 17 71 -12 69 -48 -3 -46 -1 -48 43 -48 l42 1 1 57 c1 50 -2 60
-28 87 -17 17 -38 31 -47 31 -9 1 -32 3 -51 5 -19 2 -49 0 -66 -5z"/>
<path d="M66 1888 c1 -156 2 -286 3 -289 0 -3 20 -5 44 -5 l42 1 1 115 c1 63
2 121 3 127 1 17 61 10 72 -8 10 -16 10 -16 12 -129 1 -47 6 -90 9 -96 5 -7
28 -10 55 -9 61 3 61 4 44 14 -11 7 -15 36 -17 118 -2 132 1 118 -30 147 -24
22 -25 24 -8 30 31 10 44 43 45 114 1 125 -26 149 -176 151 l-101 2 2 -283z
m172 190 c11 -15 11 -123 -1 -134 -13 -13 -77 -14 -78 -1 -1 14 -1 115 0 135
1 7 15 12 35 12 18 0 38 -6 44 -12z"/>
<path d="M399 2168 c-1 -2 -2 -130 -3 -285 -1 -182 2 -284 9 -286 9 -3 220 -1
236 2 3 0 5 18 5 38 l-1 38 -72 0 c-39 0 -75 3 -78 7 -6 6 -9 104 -6 171 1 14
11 17 56 17 42 0 55 4 56 15 5 63 7 60 -54 63 l-57 3 0 69 0 70 73 0 73 0 -2
33 c-1 17 -3 35 -3 40 -1 6 -229 11 -232 5z"/>
<path d="M687 2163 c-2 -5 -4 -134 -3 -288 l1 -280 45 0 45 0 0 188 c0 103 3
187 6 187 4 0 10 -24 14 -52 4 -29 9 -62 11 -73 2 -11 6 -42 9 -70 4 -27 12
-79 18 -115 l12 -65 42 -1 c50 0 50 0 69 151 1 11 3 20 4 20 1 0 3 11 4 25 20
193 33 201 34 20 0 -96 0 -184 1 -195 1 -18 8 -21 48 -20 l48 0 0 285 0 285
-69 3 c-38 2 -72 -1 -77 -5 -6 -7 -34 -169 -45 -273 -6 -53 -10 -69 -15 -75
-3 -3 -6 1 -6 8 0 6 -3 26 -6 42 -3 17 -8 53 -11 80 -4 28 -8 61 -11 75 -3 14
-7 41 -10 60 -15 96 -9 90 -85 90 -38 0 -71 -3 -73 -7z m97 -169 c3 -8 2 -12
-4 -9 -6 3 -10 10 -10 16 0 14 7 11 14 -7z m226 12 c0 -3 -4 -8 -10 -11 -5 -3
-10 -1 -10 4 0 6 5 11 10 11 6 0 10 -2 10 -4z"/>
<path d="M1468 2159 c-2 -6 7 -70 19 -143 13 -72 26 -147 29 -166 12 -81 35
-216 39 -235 3 -17 12 -20 59 -21 l55 0 12 70 c6 39 13 80 15 91 2 10 6 35 9
55 3 20 7 47 10 60 3 13 7 42 10 63 4 21 13 75 21 120 21 120 21 117 -30 117
-25 0 -47 -3 -49 -7 -3 -5 -8 -33 -11 -64 -4 -31 -8 -65 -10 -75 -2 -11 -7
-46 -10 -79 -4 -33 -9 -69 -11 -80 -2 -11 -4 -33 -4 -49 -1 -38 -9 -30 -15 15
-3 19 -12 93 -21 164 -9 72 -18 139 -19 150 -2 16 -12 21 -48 23 -29 2 -47 -1
-50 -9z"/>
<path d="M1876 2153 c-3 -10 -8 -34 -11 -53 -3 -19 -8 -42 -10 -50 -2 -8 -6
-33 -10 -55 -5 -36 -26 -149 -60 -325 -7 -36 -10 -67 -8 -70 2 -2 24 -5 48 -6
l44 -2 8 52 8 51 53 3 52 3 1 -33 c1 -58 12 -72 57 -75 23 -1 43 1 46 5 2 4
-1 37 -8 72 -7 36 -18 94 -25 130 -6 36 -14 76 -17 90 -3 14 -7 43 -10 64 -3
22 -7 43 -9 46 -2 4 -7 26 -10 51 -16 117 -14 114 -77 117 -47 2 -57 0 -62
-15z m69 -204 c3 -24 11 -70 19 -101 7 -32 11 -60 8 -63 -10 -10 -72 -5 -72 5
0 23 33 210 37 206 2 -2 6 -23 8 -47z"/>
<path d="M2130 1885 c0 -221 3 -285 13 -286 6 -1 63 -2 124 -3 l113 -1 0 41 0
40 -75 -1 c-48 -1 -75 2 -76 9 -1 6 -3 112 -4 236 -1 124 -3 231 -4 238 -1 7
-17 12 -46 12 l-45 0 0 -285z"/>
</g>
</svg>
